<mxfile host="65bd71144e">
    <diagram id="6TgKZimT5i8SFP6nsdH2" name="Page-1">
        <mxGraphModel dx="2051" dy="2636" grid="1" gridSize="10" guides="1" tooltips="1" connect="1" arrows="1" fold="1" page="1" pageScale="1" pageWidth="1920" pageHeight="1200" math="0" shadow="0">
            <root>
                <mxCell id="0"/>
                <mxCell id="1" parent="0"/>
                <mxCell id="2" value="&lt;div style=&quot;font-size: 48px&quot;&gt;&lt;span style=&quot;font-size: 48px&quot;&gt;start&lt;/span&gt;&lt;/div&gt;&lt;div style=&quot;font-size: 48px&quot;&gt;&lt;br style=&quot;font-size: 48px&quot;&gt;&lt;/div&gt;&lt;div style=&quot;font-size: 48px&quot;&gt;&lt;span style=&quot;font-size: 48px&quot;&gt;input a number as int a&lt;/span&gt;&lt;/div&gt;&lt;div style=&quot;font-size: 48px&quot;&gt;&lt;span style=&quot;font-size: 48px&quot;&gt;&lt;br&gt;&lt;/span&gt;&lt;/div&gt;&lt;div style=&quot;font-size: 48px&quot;&gt;&lt;span style=&quot;font-size: 48px&quot;&gt;set multimax = 1&lt;/span&gt;&lt;/div&gt;&lt;div style=&quot;font-size: 48px&quot;&gt;&lt;span style=&quot;font-size: 48px&quot;&gt;&lt;br&gt;&lt;/span&gt;&lt;/div&gt;&lt;div style=&quot;font-size: 48px&quot;&gt;&lt;span style=&quot;font-size: 48px&quot;&gt;while multimax &amp;lt;= 10&lt;/span&gt;&lt;/div&gt;&lt;div style=&quot;font-size: 48px&quot;&gt;&lt;span style=&quot;font-size: 48px&quot;&gt;&lt;span&gt;&#9;&lt;/span&gt;&lt;span style=&quot;white-space: pre&quot;&gt;&#9;&lt;/span&gt;multiply a * mulitmax&lt;br&gt;&lt;/span&gt;&lt;/div&gt;&lt;div style=&quot;font-size: 48px&quot;&gt;&lt;span style=&quot;font-size: 48px&quot;&gt;&lt;span style=&quot;white-space: pre&quot;&gt;&#9;&lt;/span&gt;output a&lt;br&gt;&lt;/span&gt;&lt;/div&gt;&lt;div style=&quot;font-size: 48px&quot;&gt;&lt;span style=&quot;font-size: 48px&quot;&gt;&lt;span&gt;&#9;&lt;/span&gt;&lt;span style=&quot;white-space: pre&quot;&gt;&#9;&lt;/span&gt;multimax = multimax +1&lt;br&gt;&lt;/span&gt;&lt;/div&gt;&lt;div style=&quot;font-size: 48px&quot;&gt;&lt;span style=&quot;font-size: 48px&quot;&gt;&lt;span&gt;&#9;&lt;/span&gt;&lt;/span&gt;&lt;/div&gt;&lt;div style=&quot;font-size: 48px&quot;&gt;&lt;span style=&quot;font-size: 48px&quot;&gt;&lt;br&gt;&lt;/span&gt;&lt;/div&gt;&lt;div style=&quot;font-size: 48px&quot;&gt;&lt;span style=&quot;font-size: 48px&quot;&gt;end&lt;/span&gt;&lt;/div&gt;&lt;div style=&quot;font-size: 48px&quot;&gt;&lt;span style=&quot;font-size: 48px&quot;&gt;&lt;br style=&quot;font-size: 48px&quot;&gt;&lt;/span&gt;&lt;/div&gt;" style="text;html=1;strokeColor=none;fillColor=none;align=left;verticalAlign=middle;whiteSpace=wrap;rounded=0;fontSize=48;" parent="1" vertex="1">
                    <mxGeometry x="160" y="-740" width="680" height="359.81" as="geometry"/>
                </mxCell>
                <mxCell id="32" value="multiplication table" style="text;html=1;align=left;verticalAlign=middle;resizable=0;points=[];autosize=1;strokeColor=none;fillColor=none;fontSize=48;fontColor=#FFFFFF;labelBackgroundColor=default;" parent="1" vertex="1">
                    <mxGeometry x="170.00167394468707" y="-1130" width="410" height="60" as="geometry"/>
                </mxCell>
                <mxCell id="59" value="" style="group" vertex="1" connectable="0" parent="1">
                    <mxGeometry x="1100" y="-1170" width="235" height="1061" as="geometry"/>
                </mxCell>
                <mxCell id="44" value="start" style="ellipse;whiteSpace=wrap;html=1;" vertex="1" parent="59">
                    <mxGeometry x="5" width="225" height="70" as="geometry"/>
                </mxCell>
                <mxCell id="45" value="input&amp;nbsp; a" style="shape=parallelogram;perimeter=parallelogramPerimeter;whiteSpace=wrap;html=1;fixedSize=1;" vertex="1" parent="59">
                    <mxGeometry x="57.5" y="141" width="120" height="60" as="geometry"/>
                </mxCell>
                <mxCell id="46" value="" style="edgeStyle=none;html=1;" edge="1" parent="59" source="44" target="45">
                    <mxGeometry relative="1" as="geometry"/>
                </mxCell>
                <mxCell id="47" value="set multimax = 1" style="whiteSpace=wrap;html=1;" vertex="1" parent="59">
                    <mxGeometry x="57.5" y="281" width="120" height="60" as="geometry"/>
                </mxCell>
                <mxCell id="48" value="" style="edgeStyle=none;html=1;" edge="1" parent="59" source="45" target="47">
                    <mxGeometry relative="1" as="geometry"/>
                </mxCell>
                <mxCell id="49" value="multimax &amp;lt;= 10" style="rhombus;whiteSpace=wrap;html=1;" vertex="1" parent="59">
                    <mxGeometry y="411" width="235" height="80" as="geometry"/>
                </mxCell>
                <mxCell id="50" value="" style="edgeStyle=none;html=1;" edge="1" parent="59" source="47" target="49">
                    <mxGeometry relative="1" as="geometry"/>
                </mxCell>
                <mxCell id="51" value="multimax * a" style="whiteSpace=wrap;html=1;" vertex="1" parent="59">
                    <mxGeometry y="581" width="235" height="60" as="geometry"/>
                </mxCell>
                <mxCell id="52" value="" style="edgeStyle=none;html=1;" edge="1" parent="59" source="49" target="51">
                    <mxGeometry relative="1" as="geometry"/>
                </mxCell>
                <mxCell id="53" value="output a" style="shape=parallelogram;perimeter=parallelogramPerimeter;whiteSpace=wrap;html=1;fixedSize=1;" vertex="1" parent="59">
                    <mxGeometry y="721" width="235" height="60" as="geometry"/>
                </mxCell>
                <mxCell id="54" value="" style="edgeStyle=none;html=1;" edge="1" parent="59" source="51" target="53">
                    <mxGeometry relative="1" as="geometry"/>
                </mxCell>
                <mxCell id="55" value="multimax = multimax +1" style="whiteSpace=wrap;html=1;" vertex="1" parent="59">
                    <mxGeometry y="861" width="235" height="60" as="geometry"/>
                </mxCell>
                <mxCell id="56" value="" style="edgeStyle=none;html=1;" edge="1" parent="59" source="53" target="55">
                    <mxGeometry relative="1" as="geometry"/>
                </mxCell>
                <mxCell id="57" value="end" style="ellipse;whiteSpace=wrap;html=1;" vertex="1" parent="59">
                    <mxGeometry x="10" y="1001" width="215" height="60" as="geometry"/>
                </mxCell>
                <mxCell id="58" value="" style="edgeStyle=none;html=1;" edge="1" parent="59" source="55" target="57">
                    <mxGeometry relative="1" as="geometry"/>
                </mxCell>
            </root>
        </mxGraphModel>
    </diagram>
</mxfile>